<?xml version="1.0" standalone="no"?>
<!DOCTYPE svg PUBLIC "-//W3C//DTD SVG 20010904//EN"
 "http://www.w3.org/TR/2001/REC-SVG-20010904/DTD/svg10.dtd">
<svg version="1.0" xmlns="http://www.w3.org/2000/svg"
 width="1200.000000pt" height="1200.000000pt" viewBox="0 0 1200.000000 1200.000000"
 preserveAspectRatio="xMidYMid meet">

<g transform="translate(0.000000,1200.000000) scale(0.100000,-0.100000)"
fill="#000000" stroke="none">
<path d="M3985 10176 c-116 -38 -198 -109 -248 -214 -31 -66 -32 -70 -35 -237
-2 -93 -7 -173 -11 -178 -6 -6 -141 -47 -156 -47 -2 0 -39 60 -82 133 -86 145
-137 203 -216 241 -98 47 -232 52 -329 11 -62 -25 -309 -176 -349 -212 -22
-20 -55 -68 -77 -111 -34 -71 -37 -82 -37 -166 0 -111 12 -146 108 -310 l69
-118 -56 -57 -56 -56 -148 76 c-165 86 -226 104 -317 96 -163 -15 -252 -87
-377 -307 -43 -75 -84 -154 -92 -177 -49 -138 -17 -295 81 -404 20 -23 95 -75
172 -120 75 -45 137 -82 138 -83 1 -1 -8 -37 -21 -81 l-23 -80 -174 -5 c-162
-5 -178 -7 -231 -32 -74 -35 -122 -71 -164 -126 -59 -77 -73 -134 -79 -307 -3
-85 -1 -184 4 -220 20 -137 102 -248 229 -308 66 -32 69 -32 242 -35 l176 -4
21 -81 c12 -45 21 -82 20 -83 -1 -1 -58 -34 -127 -75 -148 -87 -197 -129 -238
-206 -54 -103 -64 -219 -27 -324 26 -72 179 -323 228 -372 85 -87 215 -128
336 -107 59 10 200 73 326 145 l31 18 56 -59 57 -59 -40 -70 c-97 -169 -122
-232 -127 -315 -8 -133 47 -263 142 -335 70 -53 327 -193 377 -205 77 -19 193
-9 261 22 88 41 141 98 225 240 41 71 79 131 84 134 5 3 24 1 42 -5 17 -5 51
-15 73 -21 l42 -10 4 -163 c4 -132 9 -173 26 -220 44 -122 137 -212 254 -248
61 -19 88 -20 265 -17 198 3 198 3 263 34 81 39 145 96 187 165 49 81 63 152
63 310 l0 138 53 15 c114 33 97 42 168 -94 35 -68 83 -144 107 -171 110 -123
314 -159 466 -82 120 60 294 171 333 211 81 83 121 214 102 334 -10 64 -34
116 -114 258 -25 44 -45 85 -45 92 0 17 105 122 117 117 5 -2 62 -34 128 -71
133 -73 203 -98 281 -98 101 0 229 56 292 128 31 36 157 249 194 327 72 155
34 345 -91 458 -21 19 -95 65 -165 102 -93 49 -126 71 -122 82 3 8 14 43 23
78 l17 63 171 4 171 3 76 38 c130 64 211 176 229 319 16 117 3 366 -22 433
-39 104 -126 188 -239 231 -33 13 -90 19 -214 23 l-169 6 -22 77 c-16 56 -19
80 -11 86 6 5 65 41 132 80 201 118 267 212 268 382 1 47 -5 103 -11 125 -15
50 -169 316 -214 369 -69 82 -174 127 -300 127 -94 0 -141 -17 -293 -105 -62
-36 -117 -66 -122 -66 -12 0 -104 106 -104 118 0 6 29 65 65 132 88 165 98
200 93 309 -3 74 -9 99 -35 152 -44 89 -96 135 -264 233 -184 107 -222 120
-337 114 -168 -8 -249 -67 -368 -271 -42 -73 -78 -133 -79 -135 -2 -2 -34 5
-72 16 l-68 19 -6 164 c-6 172 -15 211 -64 294 -35 60 -107 122 -183 158 l-67
32 -205 2 c-148 2 -216 -1 -245 -11z m437 -271 c15 -11 36 -36 47 -56 19 -34
21 -53 21 -245 0 -274 2 -277 164 -315 44 -11 124 -33 177 -49 175 -54 180
-51 316 181 57 96 114 186 129 200 21 20 36 24 82 24 52 0 67 -6 177 -70 66
-38 135 -83 153 -101 28 -28 32 -39 32 -83 0 -46 -11 -72 -101 -242 -129 -242
-129 -233 -2 -363 49 -50 115 -121 147 -158 62 -73 103 -93 155 -78 16 4 106
54 200 109 94 56 184 104 200 107 40 8 92 -11 123 -44 27 -30 141 -221 157
-265 15 -40 14 -74 -5 -113 -13 -28 -44 -51 -163 -120 -215 -127 -237 -142
-249 -169 -19 -41 -14 -80 22 -204 19 -64 40 -143 46 -176 16 -86 28 -113 64
-138 29 -21 44 -22 256 -27 246 -5 259 -8 297 -67 15 -23 18 -51 18 -194 0
-186 -4 -198 -75 -246 -32 -22 -42 -23 -237 -23 -228 0 -259 -6 -292 -61 -11
-18 -23 -51 -27 -73 -3 -23 -22 -95 -41 -161 -50 -169 -52 -182 -42 -220 13
-48 46 -71 226 -165 164 -85 199 -113 209 -168 8 -44 -11 -91 -94 -231 -78
-133 -104 -156 -171 -155 -40 0 -70 14 -211 94 -91 51 -178 96 -193 101 -61
17 -85 2 -240 -150 -82 -80 -155 -158 -163 -173 -30 -57 -20 -90 83 -271 147
-261 144 -280 -67 -404 -138 -81 -176 -96 -219 -83 -68 19 -69 20 -186 245
-112 215 -117 217 -328 156 -78 -22 -167 -46 -197 -52 -61 -13 -95 -32 -113
-63 -8 -14 -14 -96 -17 -243 -6 -246 -7 -251 -80 -300 -31 -22 -43 -23 -201
-23 -167 0 -167 0 -200 27 -54 46 -59 70 -59 299 0 272 -3 278 -171 310 -42 8
-126 30 -186 49 -124 40 -133 41 -179 19 -28 -13 -51 -44 -121 -163 -126 -216
-134 -227 -164 -245 -56 -33 -102 -22 -246 60 -159 92 -183 116 -183 186 0 45
10 68 96 219 98 175 113 215 95 261 -6 15 -75 95 -153 178 -196 206 -168 201
-411 76 -218 -112 -237 -119 -287 -106 -46 12 -74 43 -142 160 -80 138 -88
155 -88 198 0 67 29 95 215 204 94 55 180 110 193 122 38 37 38 88 2 206 -18
58 -41 145 -51 193 -33 162 -42 167 -321 167 -223 0 -250 6 -292 63 -19 25
-21 45 -24 185 -2 139 -1 161 16 192 38 69 59 74 318 80 286 6 280 3 309 159
9 43 31 128 50 188 19 59 35 120 35 134 0 55 -39 90 -220 196 -195 114 -220
137 -220 212 0 38 12 66 75 177 95 166 109 179 183 179 53 0 70 -7 239 -98
194 -104 232 -114 284 -79 14 9 90 79 169 154 140 134 143 138 147 185 4 46 0
55 -103 228 -104 172 -108 182 -109 237 0 51 3 61 30 87 17 16 86 62 155 103
107 63 132 73 172 73 32 0 56 -7 75 -21 15 -11 73 -98 129 -192 114 -195 124
-207 170 -222 30 -10 50 -7 152 24 64 19 153 43 197 52 163 33 165 37 165 301
0 109 5 215 10 235 6 20 26 50 46 68 l36 31 177 -3 c158 -3 179 -5 203 -23z"/>
<path d="M4025 8645 c-469 -64 -879 -363 -1079 -786 -101 -213 -131 -350 -131
-604 0 -203 11 -279 62 -434 115 -353 376 -654 710 -820 208 -104 383 -144
623 -144 230 0 405 39 607 134 186 88 389 256 519 428 109 146 207 362 249
554 25 110 31 371 12 492 -68 424 -309 778 -687 1005 -250 150 -585 217 -885
175z m365 -260 c369 -60 679 -290 848 -630 85 -171 117 -328 110 -545 -10
-305 -121 -557 -339 -771 -333 -328 -832 -419 -1260 -230 -313 138 -552 417
-646 757 -26 92 -28 112 -28 289 0 177 2 197 28 289 55 199 157 375 297 516
262 263 628 383 990 325z"/>
<path d="M8255 6356 c-56 -18 -95 -40 -131 -74 -81 -74 -114 -169 -114 -324
l0 -97 -37 -7 c-29 -6 -39 -3 -48 10 -113 189 -165 243 -263 272 -58 18 -159
18 -209 0 -59 -21 -254 -134 -289 -168 -72 -69 -111 -189 -94 -293 6 -36 29
-93 64 -158 l54 -102 -27 -34 -27 -33 -100 55 c-129 71 -161 80 -249 75 -135
-9 -216 -75 -319 -262 -78 -141 -89 -176 -83 -257 9 -134 79 -229 226 -307 44
-24 81 -46 81 -50 0 -4 -5 -23 -10 -44 l-10 -36 -128 -4 c-103 -3 -136 -8
-174 -25 -63 -29 -134 -96 -166 -158 -26 -48 -27 -58 -30 -230 -4 -214 7 -260
86 -344 74 -79 139 -103 289 -109 l123 -5 9 -31 c4 -17 6 -34 4 -38 -2 -4 -42
-30 -89 -58 -47 -29 -101 -68 -121 -88 -81 -83 -115 -234 -76 -337 29 -75 131
-253 170 -296 74 -82 203 -116 323 -85 35 9 99 37 142 61 42 25 81 45 86 45 4
0 21 -13 36 -29 l27 -29 -49 -88 c-81 -144 -90 -250 -33 -370 16 -33 46 -76
67 -96 54 -51 260 -165 324 -179 97 -21 214 11 292 80 20 17 62 73 93 124 32
51 59 93 60 95 2 2 19 0 38 -3 l35 -7 4 -121 c4 -93 10 -135 27 -178 26 -68
91 -138 163 -176 53 -28 54 -28 243 -28 187 0 191 0 246 28 66 32 132 99 162
165 17 38 22 71 25 173 l4 126 40 12 c22 7 41 11 43 9 1 -2 23 -42 49 -89 80
-150 182 -219 320 -219 81 0 106 9 251 89 173 96 228 157 254 283 21 100 -1
183 -81 306 l-41 63 30 31 30 30 113 -58 c98 -50 121 -58 184 -62 150 -9 242
56 346 245 77 140 89 172 90 250 1 135 -58 225 -205 318 -86 54 -100 66 -96
86 8 57 13 59 136 59 135 0 198 19 267 79 92 81 125 195 115 401 -6 144 -29
210 -95 278 -78 80 -124 96 -278 100 l-131 3 -12 38 c-6 21 -11 41 -11 44 0 3
37 25 82 49 148 77 217 170 226 304 6 90 -4 119 -86 269 -112 204 -173 250
-327 250 l-90 0 -115 -63 -114 -62 -33 32 -32 33 54 87 c91 146 106 249 50
363 -35 73 -95 125 -229 200 -145 81 -214 101 -296 87 -123 -22 -202 -86 -279
-225 -43 -79 -49 -82 -101 -68 -25 7 -25 9 -30 136 -4 107 -9 138 -28 176 -36
74 -87 125 -160 161 -66 33 -67 33 -232 35 -114 2 -177 -2 -205 -11z m340
-271 c24 -24 25 -27 25 -185 0 -231 10 -248 169 -281 49 -10 116 -27 150 -39
134 -45 161 -29 261 156 102 188 98 186 248 108 119 -62 148 -88 138 -126 -3
-13 -42 -81 -86 -153 -72 -116 -80 -135 -80 -179 l0 -49 134 -135 c131 -131
136 -135 183 -139 45 -4 59 2 203 81 137 75 157 83 175 72 31 -20 135 -206
135 -242 0 -41 -22 -59 -155 -129 -190 -100 -202 -123 -156 -278 16 -56 35
-128 41 -159 14 -72 46 -120 90 -135 21 -7 98 -12 191 -12 210 -1 203 4 207
-165 l4 -126 -30 -30 -30 -30 -167 0 c-218 0 -238 -11 -265 -145 -6 -33 -25
-100 -42 -149 -26 -78 -29 -94 -19 -126 14 -47 31 -62 184 -154 70 -43 132
-86 137 -96 17 -33 11 -61 -31 -139 -57 -104 -86 -141 -111 -141 -11 0 -83 34
-160 75 -145 79 -180 92 -222 81 -39 -10 -284 -255 -296 -295 -13 -47 3 -87
88 -213 113 -169 111 -179 -46 -267 -61 -33 -119 -61 -129 -61 -37 0 -63 32
-135 167 -97 182 -120 196 -258 152 -36 -11 -105 -29 -153 -40 -158 -35 -167
-50 -167 -277 0 -146 -2 -161 -21 -186 -20 -26 -22 -26 -154 -26 -132 0 -134
0 -154 26 -19 24 -21 40 -21 186 0 228 -9 242 -169 277 -50 11 -112 29 -137
41 -63 27 -115 26 -151 -4 -16 -13 -66 -85 -111 -160 -82 -134 -102 -156 -140
-156 -23 0 -177 83 -209 113 -42 38 -32 82 52 226 80 136 90 174 61 229 -8 15
-68 79 -133 144 -94 92 -125 118 -155 123 -49 9 -65 3 -202 -78 -82 -47 -134
-71 -162 -75 -42 -4 -44 -3 -71 40 -15 25 -46 78 -67 119 -54 103 -51 109 129
220 83 52 147 99 157 116 23 37 23 90 -1 146 -10 24 -26 79 -36 123 -36 176
-48 184 -278 184 -165 0 -168 0 -192 25 -24 23 -25 30 -25 150 0 120 1 127 25
150 24 24 27 25 185 25 232 0 245 8 281 170 11 51 29 119 39 151 45 132 25
164 -160 263 -180 96 -180 98 -114 225 60 115 88 151 120 151 13 0 91 -36 172
-80 158 -85 195 -95 251 -66 15 8 35 26 44 40 9 14 57 68 106 120 93 99 112
136 96 188 -4 12 -41 85 -82 161 -99 182 -99 183 69 271 124 66 125 65 239
-119 52 -83 99 -147 116 -157 37 -23 91 -23 146 1 25 11 86 28 136 39 162 35
171 50 171 282 0 158 1 161 25 185 23 24 30 25 150 25 120 0 127 -1 150 -25z"/>
<path d="M8370 5203 c-456 -36 -849 -352 -974 -786 -38 -129 -50 -235 -43
-376 19 -406 241 -755 593 -930 174 -87 297 -114 509 -114 173 0 258 14 401
68 329 124 581 408 675 762 27 100 37 330 19 441 -49 305 -234 587 -498 760
-146 95 -305 151 -487 172 -89 10 -106 10 -195 3z m279 -279 c78 -19 209 -78
278 -125 70 -48 169 -145 219 -215 182 -254 208 -589 69 -869 -86 -172 -206
-290 -381 -376 -339 -166 -751 -94 -1001 175 -146 157 -211 318 -220 547 -11
265 74 479 260 656 135 128 283 196 492 227 55 8 216 -3 284 -20z"/>
</g>
</svg>
