<?xml version="1.0" standalone="no"?>
<!DOCTYPE svg PUBLIC "-//W3C//DTD SVG 20010904//EN"
 "http://www.w3.org/TR/2001/REC-SVG-20010904/DTD/svg10.dtd">
<svg version="1.0" xmlns="http://www.w3.org/2000/svg"
 width="512.000000pt" height="512.000000pt" viewBox="0 0 512.000000 512.000000"
 preserveAspectRatio="xMidYMid meet">

<g transform="translate(0.000000,512.000000) scale(0.100000,-0.100000)"
fill="#000000" stroke="none">
<path d="M763 3489 c-18 -5 -39 -19 -48 -31 -20 -29 -20 -119 1 -187 8 -29 14
-54 12 -56 -2 -2 -88 -37 -193 -78 -104 -41 -234 -96 -287 -120 -136 -63 -148
-91 -107 -249 20 -81 20 -81 1 -101 -11 -11 -43 -27 -71 -37 l-51 -17 39 -52
40 -53 -34 -46 -33 -47 34 -40 c18 -22 34 -42 34 -45 0 -4 -16 -12 -35 -19
-86 -31 -85 -103 3 -181 64 -58 198 -129 258 -137 l39 -5 1 109 c0 131 27 217
97 316 106 149 260 227 447 227 158 0 280 -50 390 -160 138 -138 192 -339 141
-532 l-17 -66 101 -21 c270 -55 241 -54 1368 -58 l1047 -4 -30 58 c-43 81 -60
154 -60 253 0 154 46 265 155 375 82 82 144 118 251 145 91 24 145 25 237 5
198 -42 366 -204 412 -396 29 -123 13 -264 -42 -373 l-25 -49 29 7 c97 23 202
109 222 182 40 141 38 345 -4 469 -87 260 -296 376 -747 415 -70 6 -162 18
-205 26 -94 18 -435 50 -628 59 -195 9 -200 11 -490 205 -186 125 -302 186
-433 230 -342 114 -736 111 -1235 -10 l-118 -29 -122 43 c-186 66 -292 89
-344 75z"/>
<path d="M4320 2558 c-128 -14 -271 -112 -334 -227 -75 -139 -73 -317 7 -453
62 -107 203 -200 329 -218 293 -42 558 225 510 513 -41 254 -255 414 -512 385z"/>
<path d="M793 2545 c-195 -53 -323 -205 -348 -415 -21 -175 92 -373 259 -455
278 -137 611 32 667 338 26 142 -24 302 -129 406 -119 120 -292 168 -449 126z"/>
</g>
</svg>
