<?xml version="1.0" standalone="no"?>
<!DOCTYPE svg PUBLIC "-//W3C//DTD SVG 20010904//EN"
 "http://www.w3.org/TR/2001/REC-SVG-20010904/DTD/svg10.dtd">
<svg version="1.0" xmlns="http://www.w3.org/2000/svg"
 width="896.000000pt" height="447.000000pt" viewBox="0 0 896.000000 447.000000"
 preserveAspectRatio="xMidYMid meet">

<g transform="translate(0.000000,447.000000) scale(0.100000,-0.100000)"
fill="#000000" stroke="none">
<path d="M0 2235 l0 -2235 4480 0 4480 0 0 2235 0 2235 -4480 0 -4480 0 0
-2235z m3720 1827 c0 -4 -10 -12 -22 -17 -21 -9 -23 -17 -26 -112 l-3 -102 28
-15 28 -14 -28 -13 -27 -12 0 -364 0 -363 105 0 105 0 0 363 c0 355 0 362 -21
375 -20 13 -20 13 5 33 24 19 26 26 26 110 0 76 -3 92 -20 109 -11 11 -20 22
-20 25 0 3 160 5 355 5 195 0 355 -3 355 -8 0 -4 -9 -13 -20 -20 -18 -11 -20
-23 -20 -112 0 -91 2 -100 21 -111 l21 -11 -21 -22 c-20 -22 -21 -31 -21 -367
0 -189 4 -350 8 -357 6 -9 35 -12 108 -10 l99 3 3 357 2 357 -26 17 -26 17 26
14 c25 13 26 17 26 108 0 82 -3 98 -20 115 -11 11 -20 22 -20 25 0 3 158 5
350 5 193 0 350 -4 350 -8 0 -5 -11 -15 -25 -22 -24 -13 -25 -17 -25 -111 0
-97 0 -99 27 -113 l28 -14 -28 -13 -27 -12 0 -394 0 -394 30 -17 c16 -9 30
-20 30 -23 0 -4 -24 -9 -52 -13 -133 -17 -359 -91 -510 -167 -205 -103 -459
-314 -586 -486 -25 -35 -49 -63 -53 -63 -4 0 -29 28 -55 63 -127 166 -334 344
-525 452 -171 97 -415 183 -575 201 -30 4 -54 9 -54 11 0 3 11 14 25 25 l25
19 0 389 0 388 -26 19 -25 19 25 14 c25 13 26 17 26 107 0 80 -3 96 -20 113
-11 11 -20 22 -20 25 0 3 160 5 355 5 195 0 355 -3 355 -8z m-3066 -2109 c7
-16 50 -120 95 -233 45 -113 85 -208 90 -213 4 -4 50 82 101 190 52 109 104
216 115 238 l20 40 128 3 128 3 94 -195 c52 -107 104 -216 115 -242 12 -26 25
-43 30 -38 5 5 47 108 95 229 48 121 92 226 97 233 12 14 253 18 262 3 4 -7
-107 -266 -209 -487 -8 -16 -28 -60 -44 -97 l-30 -67 -163 0 -164 0 -102 212
c-63 131 -106 208 -112 202 -10 -11 -190 -370 -197 -396 -5 -16 -22 -18 -172
-18 l-167 0 -31 73 c-17 39 -81 184 -142 320 -61 137 -109 252 -106 258 4 5
62 9 130 9 l124 0 15 -27z m2701 -297 c135 -179 245 -327 245 -330 0 -3 -69
-6 -152 -6 l-153 0 -39 55 -39 55 -286 0 -286 -1 -38 -54 -38 -55 -155 0 -156
0 39 53 c53 73 398 535 428 575 l26 32 179 0 179 0 246 -324z m777 252 c46
-40 101 -89 123 -109 22 -20 55 -49 73 -64 l32 -27 101 89 c56 48 126 109 156
136 l55 47 159 0 c87 0 159 -4 159 -8 0 -5 -110 -102 -245 -218 l-245 -209 0
-112 0 -113 -140 0 -140 0 0 113 0 112 -245 209 c-135 116 -245 213 -245 218
0 4 72 8 160 8 l160 0 82 -72z m1830 -85 c95 -87 210 -193 256 -235 46 -43 88
-78 93 -78 5 0 10 105 11 233 l3 232 135 0 135 0 3 -327 2 -328 -220 0 -221 0
-250 230 c-138 127 -255 230 -260 230 -5 0 -9 -94 -9 -230 l0 -230 -140 0
-140 0 0 323 c0 178 3 327 7 330 3 4 100 7 214 7 l209 0 172 -157z m2073 77
l0 -75 -357 -3 -358 -2 0 -50 0 -50 246 0 246 0 -7 -32 c-4 -18 -13 -49 -19
-68 l-11 -35 -225 -5 -225 -5 0 -50 0 -50 363 -3 362 -2 0 -75 0 -75 -505 0
-505 0 0 323 c0 178 3 327 7 330 3 4 227 6 497 5 l491 -3 0 -75z m53 -816 c33
-23 28 -83 -8 -101 -33 -17 -7383 -19 -7427 -2 -49 18 -58 64 -21 99 l22 20
3706 0 c3376 0 3708 -1 3728 -16z m-7028 -445 c0 -138 -1 -150 -17 -147 -16 3
-18 19 -21 138 -3 145 -1 160 23 160 13 0 15 -22 15 -151z m605 24 l130 -126
5 124 c4 108 7 124 23 127 16 3 17 -9 17 -147 l0 -151 -27 0 c-22 1 -57 29
-158 125 -71 68 -133 124 -137 125 -4 0 -9 -55 -10 -122 -3 -101 -6 -123 -18
-123 -13 0 -15 24 -18 148 l-3 147 33 0 c28 -1 51 -18 163 -127z m916 98 c27
-28 29 -34 29 -111 0 -146 -25 -163 -232 -158 l-123 3 -3 148 -3 147 152 0
151 0 29 -29z m469 -86 c0 -152 2 -155 138 -155 63 0 104 4 115 13 14 10 17
34 19 132 3 105 5 120 21 123 15 3 17 -8 17 -125 0 -175 7 -167 -162 -171
-183 -5 -182 -5 -186 153 -4 125 -1 145 23 145 13 0 15 -18 15 -115z m1026 90
c26 -26 29 -55 7 -62 -7 -3 -17 6 -22 20 -13 33 -28 37 -134 37 -96 0 -127
-13 -127 -51 0 -40 26 -49 136 -49 148 0 184 -24 167 -113 -10 -48 -48 -59
-184 -55 -127 3 -142 9 -154 59 -9 36 22 49 35 14 14 -36 40 -45 137 -45 64 0
95 4 111 16 24 17 29 56 10 72 -7 5 -68 13 -136 17 -115 7 -124 9 -142 33 -27
34 -25 77 5 107 23 24 30 25 145 25 116 0 122 -1 146 -25z m734 10 c0 -11 -17
-15 -72 -17 l-73 -3 -3 -133 c-2 -120 -4 -133 -20 -130 -15 3 -17 20 -20 136
l-3 132 -74 0 c-60 0 -75 3 -75 15 0 13 26 15 170 15 142 0 170 -2 170 -15z
m690 -3 c30 -24 34 -100 7 -130 -16 -17 -16 -20 -2 -32 22 -18 17 -115 -5
-115 -11 0 -16 13 -18 45 -2 24 -8 50 -14 57 -7 9 -44 13 -124 13 l-113 0 -3
-57 c-2 -46 -7 -59 -20 -61 -17 -3 -18 9 -18 147 l0 151 144 0 c124 0 147 -2
166 -18z m465 -132 c0 -130 -2 -145 -17 -148 -17 -3 -18 9 -18 148 0 139 1
151 18 148 15 -3 17 -18 17 -148z m698 135 c-2 -6 -54 -11 -123 -13 -114 -2
-120 -4 -125 -25 -3 -12 -3 -31 -1 -42 3 -11 5 -23 5 -27 1 -5 55 -8 122 -8
92 0 120 -3 117 -12 -3 -9 -39 -14 -121 -16 -113 -3 -117 -3 -123 -26 -3 -13
-4 -35 -2 -47 3 -23 6 -24 128 -29 102 -4 125 -8 125 -20 0 -13 -23 -15 -145
-15 l-145 0 -3 134 c-1 74 0 141 2 148 4 11 37 13 148 11 89 -2 142 -7 141
-13z m694 0 c24 -17 34 -47 22 -66 -8 -11 -12 -10 -24 6 -32 44 -34 45 -131
45 -111 0 -134 -9 -134 -50 0 -42 23 -50 140 -50 136 0 160 -13 160 -87 0 -33
-5 -46 -27 -63 -26 -20 -37 -21 -151 -18 -117 3 -125 4 -143 27 -22 27 -22 66
1 66 8 0 16 -9 18 -20 7 -36 31 -45 128 -45 51 0 100 3 109 6 23 9 37 51 25
74 -8 15 -28 19 -135 25 -68 4 -132 13 -140 19 -9 6 -19 30 -22 53 -5 35 -2
45 20 67 25 25 31 26 144 26 88 0 124 -4 140 -15z"/>
<path d="M2845 1706 c-44 -63 -81 -119 -83 -125 -5 -14 324 -15 333 -1 4 7
-158 241 -168 240 -1 0 -38 -52 -82 -114z"/>
<path d="M2290 646 l0 -116 124 0 c151 0 156 4 156 115 -1 107 -5 109 -155
113 l-125 4 0 -116z"/>
<path d="M5232 703 l3 -58 103 -3 c124 -3 142 4 142 58 0 53 -16 60 -145 60
l-106 0 3 -57z"/>
</g>
</svg>
